# Blender v2.78 (sub 5) OBJ File: ''
# www.blender.org
v 0.000000 0.607560 0.815156
v -0.707106 0.613212 -0.409576
v 0.000000 0.033984 -0.003996
v 0.000000 1.192440 -0.815155
v 0.707106 1.186788 0.409576
v 0.707107 0.613212 -0.409575
v -0.707107 1.186788 0.409576
v 0.000000 1.766016 0.003996
vt 1.000000 0.000000
vt 0.000000 1.000000
vt 0.000000 0.000000
vt 1.000000 0.000000
vt 0.000000 1.000000
vt 0.000000 0.000000
vt 1.000000 0.000000
vt 0.000000 1.000000
vt 1.000000 0.000000
vt 0.000000 1.000000
vt 0.000000 0.000000
vt 1.000000 0.000000
vt 0.000000 0.000000
vt 1.000000 0.000000
vt 0.000000 1.000000
vt 1.000000 1.000000
vt 1.000000 1.000000
vt 1.000000 1.000000
vt 1.000000 1.000000
vt 1.000000 1.000000
vn -0.7071 -0.5792 0.4056
vn 0.7071 0.5792 -0.4056
vn 0.7071 -0.5792 0.4056
vn -0.0000 0.5736 0.8192
vn -0.7071 0.5792 -0.4056
vn 0.0000 -0.5736 -0.8192
s 1
f 1/1/1 2/2/1 3/3/1
f 4/4/2 5/5/2 6/6/2
f 6/7/3 1/8/3 3/3/3
f 5/9/4 7/10/4 1/11/4
f 8/12/5 2/2/5 7/13/5
f 3/14/6 4/15/6 6/6/6
f 1/1/1 7/16/1 2/2/1
f 4/4/2 8/17/2 5/5/2
f 6/7/3 5/18/3 1/8/3
f 5/9/4 8/17/4 7/10/4
f 8/12/5 4/19/5 2/2/5
f 3/14/6 2/20/6 4/15/6
