# Blender v2.78 (sub 5) OBJ File: ''
# www.blender.org
v 0.499394 -0.000000 0.500452
v -0.501510 0.000000 -0.500452
v 0.499394 0.000000 -0.500452
v -0.375000 0.150000 -0.375000
v 0.375000 0.850000 -0.375000
v 0.375000 0.150000 -0.375000
v 0.499394 0.100000 -0.500452
v 0.499394 0.100000 0.500452
v -0.501510 -0.000000 0.500452
v -0.501510 0.100000 0.500452
v -0.501510 0.100000 -0.500452
v 0.375000 0.150000 0.375000
v -0.375000 0.150000 0.375000
v -0.375000 0.850000 0.375000
v 0.499394 0.900000 0.500452
v -0.501510 0.900000 0.500452
v 0.375000 0.850000 0.375000
v -0.375000 0.850000 -0.375000
v -0.501510 0.900000 -0.500452
v -0.501510 1.000000 0.500452
v -0.501510 1.000000 -0.500452
v 0.499394 0.900000 -0.500452
v 0.499394 1.000000 0.500452
v 0.499394 1.000000 -0.500452
vt 0.864860 0.008340
vt 0.801846 0.639048
vt 0.801846 0.008340
vt 0.864860 0.008340
vt 0.801740 0.639048
vt 0.801740 0.008340
vt 0.716437 0.086943
vt 0.274969 0.559732
vt 0.274969 0.086943
vt 0.126917 0.008340
vt 0.190037 0.639048
vt 0.126917 0.639048
vt 0.864860 0.008340
vt 0.801740 0.639048
vt 0.801740 0.008340
vt 0.298182 0.986193
vt 0.701818 0.582557
vt 0.701818 0.986193
vt 0.189931 0.008340
vt 0.189931 0.639048
vt 0.190037 0.008340
vt 0.275340 0.560445
vt 0.190037 0.639048
vt 0.275340 0.087656
vt 0.275340 0.560445
vt 0.716437 0.559732
vt 0.801846 0.008340
vt 0.716808 0.560445
vt 0.716807 0.087656
vt 0.716807 0.087656
vt 0.126917 0.008340
vt 0.189931 0.639048
vt 0.126917 0.008340
vt 0.189931 0.008340
vt 0.298182 0.582557
vt 0.701818 0.986193
vt 0.298182 0.986193
vt 0.716437 0.086943
vt 0.126917 0.008340
vt 0.274969 0.086943
vt 0.716437 0.559732
vt 0.274969 0.559732
vt 0.864860 0.639048
vt 0.801846 0.639048
vt 0.275340 0.087656
vt 0.864860 0.639048
vt 0.864860 0.639048
vt 0.190037 0.008340
vt 0.864860 0.639048
vt 0.298182 0.582557
vt 0.716808 0.560445
vt 0.126917 0.639048
vt 0.126917 0.639048
vt 0.701818 0.582557
vt 0.126917 0.639048
vt 0.864860 0.008340
vn 0.0000 0.0000 -1.0000
vn 0.0000 -0.0000 1.0000
vn 1.0000 0.0000 0.0000
vn 0.0000 -1.0000 -0.0000
vn 0.0000 0.9289 0.3702
vn -0.3676 0.9300 0.0000
vn 0.0000 0.9289 -0.3702
vn 0.0000 -0.9289 0.3702
vn -0.3676 -0.9300 -0.0000
vn -1.0000 0.0000 0.0000
vn 0.0000 1.0000 0.0000
vn 0.0000 -0.9289 -0.3702
vn 0.3729 -0.9279 -0.0000
vn 0.3729 0.9279 0.0000
s 1
f 21/1/1 22/2/1 19/3/1
f 23/4/2 16/5/2 15/6/2
f 17/7/2 13/8/2 12/9/2
f 2/10/1 7/11/1 3/12/1
f 24/13/3 15/14/3 22/15/3
f 9/16/4 3/17/4 1/18/4
f 8/19/5 13/8/5 10/20/5
f 10/21/6 4/22/6 11/23/6
f 7/11/7 4/24/7 6/25/7
f 15/6/8 14/26/8 17/7/8
f 16/27/9 18/28/9 14/29/9
f 18/30/1 6/25/1 4/24/1
f 11/23/10 9/31/10 10/21/10
f 8/32/3 3/33/3 7/34/3
f 20/35/11 24/36/11 21/37/11
f 22/2/12 18/30/12 19/3/12
f 15/14/13 5/38/13 22/15/13
f 10/20/2 1/39/2 8/19/2
f 6/40/14 8/32/14 7/34/14
f 6/40/3 17/41/3 12/42/3
f 16/27/10 21/43/10 19/44/10
f 14/29/10 4/22/10 13/45/10
f 21/1/1 24/46/1 22/2/1
f 23/4/2 20/47/2 16/5/2
f 17/7/2 14/26/2 13/8/2
f 2/10/1 11/48/1 7/11/1
f 24/13/3 23/49/3 15/14/3
f 9/16/4 2/50/4 3/17/4
f 8/19/5 12/9/5 13/8/5
f 10/21/6 13/45/6 4/22/6
f 7/11/7 11/48/7 4/24/7
f 15/6/8 16/5/8 14/26/8
f 16/27/9 19/44/9 18/28/9
f 18/30/1 5/51/1 6/25/1
f 11/23/10 2/52/10 9/31/10
f 8/32/3 1/53/3 3/33/3
f 20/35/11 23/54/11 24/36/11
f 22/2/12 5/51/12 18/30/12
f 15/14/13 17/41/13 5/38/13
f 10/20/2 9/55/2 1/39/2
f 6/40/14 12/42/14 8/32/14
f 6/40/3 5/38/3 17/41/3
f 16/27/10 20/56/10 21/43/10
f 14/29/10 18/28/10 4/22/10
